<svg width="188" height="24" viewBox="0 0 188 24" fill="none" xmlns="http://www.w3.org/2000/svg">
<g clip-path="url(#clip0_1838_20951)">
<path d="M11.8672 23.6419H23.7555V11.8116C17.3642 12.1884 12.2457 17.2807 11.8693 23.6419H11.8672Z" fill="url(#paint0_radial_1838_20951)"/>
<path d="M0 23.6439H11.4765L6.83224 7.05054C2.60811 11.3169 0 17.1772 0 23.6439Z" fill="url(#paint1_radial_1838_20951)"/>
<path d="M7.08203 6.80214L23.754 11.4225V0C17.2566 0 11.3706 2.59583 7.08203 6.80214Z" fill="url(#paint2_radial_1838_20951)"/>
<path d="M6.83398 7.04846L11.4782 23.6419H11.8693C12.2457 17.2786 17.3642 12.1842 23.7576 11.8095V11.4224L7.08564 6.80212C7.00245 6.88493 6.91926 6.96566 6.83606 7.05053L6.83398 7.04846Z" fill="white"/>
<path d="M40.3532 7.20996C42.8989 7.20996 45.1555 8.52857 46.2141 10.5613L48.3647 9.3214C46.7986 6.60137 43.7745 4.83356 40.3532 4.83356C34.6773 4.83356 30.6445 9.08541 30.6445 14.4178C30.6445 19.7502 34.6752 24.0021 40.3532 24.0021C43.8015 24.0021 46.8256 22.2074 48.3647 19.4873L46.2141 18.2743C45.1534 20.2802 42.8989 21.6009 40.3532 21.6009C36.0022 21.6009 33.0863 18.4585 33.0863 14.4199C33.0863 10.3813 36.0043 7.2141 40.3532 7.2141V7.20996Z" fill="#0032A0"/>
<path d="M76.6843 4.83356H74.1719V23.6419H84.8372V21.2779H76.6843V4.83356Z" fill="#0032A0"/>
<path d="M141.562 4.48163C136.082 4.48163 131.789 8.808 131.789 14.2356C131.789 19.6633 136.082 23.9896 141.562 23.9896C147.043 23.9896 151.364 19.6364 151.364 14.2356C151.364 8.83491 147.045 4.48163 141.562 4.48163ZM141.562 21.5449C137.432 21.5449 134.272 18.3467 134.272 14.2356C134.272 10.1245 137.43 6.9015 141.562 6.9015C145.695 6.9015 148.852 10.0976 148.852 14.2356C148.852 18.3736 145.693 21.5449 141.562 21.5449Z" fill="#0032A0"/>
<path d="M94.2301 4.83148L87.1836 23.6419H89.8562L91.3952 19.4232H99.8997L101.439 23.6419H104.111L97.0649 4.83148H94.2301ZM92.2584 17.0861L95.6339 7.81647L99.0365 17.0861H92.2584Z" fill="#0032A0"/>
<path d="M167.491 10.6628C167.491 7.43766 164.845 4.83148 161.605 4.83148H154.045V23.6419H156.555V16.4402H161.01L165.249 23.6419H168.03L163.575 16.1173C165.842 15.3121 167.489 13.1365 167.489 10.6648L167.491 10.6628ZM156.557 14.1818V7.16855H161.607C163.471 7.16855 164.981 8.72729 164.981 10.6628C164.981 12.5983 163.469 14.1818 161.607 14.1818H156.557Z" fill="#0032A0"/>
<path d="M118.418 19.7233V23.6398H120.93V21.2759V19.7233V15.31H128.894V12.9729H120.93V7.19546H129.57V4.83148H118.418V19.7233Z" fill="#0032A0"/>
<path d="M101.922 7.48316H107.386V23.6398H109.827V7.48316H115.318V5.16058H101.922V7.48316Z" fill="#0032A0"/>
<path d="M65.1658 4.83356H58.3086V23.6419H60.819V16.9246H65.1658C68.6495 16.9246 71.268 14.2916 71.268 10.8801C71.268 7.46871 68.6495 4.83356 65.1658 4.83356ZM65.1658 14.5876H60.819V7.1727H65.1658C67.2435 7.1727 68.7847 8.73144 68.7847 10.8801C68.7847 13.0288 67.2456 14.5876 65.1658 14.5876Z" fill="#0032A0"/>
<path d="M185.975 4.83148L179.116 14.7304L172.254 4.83148H170.23V23.6398H172.741V9.58636L179.116 18.8042L185.488 9.58636V23.6398H188.001V4.83148H185.975Z" fill="#0032A0"/>
<path d="M52.3872 3.22511L52.3414 3.18164L50.3281 8.1932L55.2407 5.90581L55.1949 5.86234C53.8098 5.62221 52.7075 4.57477 52.3892 3.22511H52.3872Z" fill="#0032A0"/>
</g>
<defs>
<radialGradient id="paint0_radial_1838_20951" cx="0" cy="0" r="1" gradientUnits="userSpaceOnUse" gradientTransform="translate(23.7504 23.7104) scale(23.8389 23.7267)">
<stop stop-color="#569DFF"/>
<stop offset="0.13" stop-color="#418BF9"/>
<stop offset="0.44" stop-color="#1264ED"/>
<stop offset="0.6" stop-color="#0055E9"/>
<stop offset="0.68" stop-color="#0052E3"/>
<stop offset="0.79" stop-color="#004AD2"/>
<stop offset="0.91" stop-color="#003DB7"/>
<stop offset="1" stop-color="#0032A0"/>
</radialGradient>
<radialGradient id="paint1_radial_1838_20951" cx="0" cy="0" r="1" gradientUnits="userSpaceOnUse" gradientTransform="translate(23.7507 23.7104) scale(23.8406 23.7284)">
<stop stop-color="#569DFF"/>
<stop offset="0.13" stop-color="#418BF9"/>
<stop offset="0.45" stop-color="#1264ED"/>
<stop offset="0.6" stop-color="#0055E9"/>
<stop offset="0.69" stop-color="#0052E3"/>
<stop offset="0.79" stop-color="#004AD2"/>
<stop offset="0.91" stop-color="#003DB7"/>
<stop offset="1" stop-color="#0032A0"/>
</radialGradient>
<radialGradient id="paint2_radial_1838_20951" cx="0" cy="0" r="1" gradientUnits="userSpaceOnUse" gradientTransform="translate(23.751 23.7104) scale(23.8406 23.7284)">
<stop stop-color="#569DFF"/>
<stop offset="0.13" stop-color="#418BF9"/>
<stop offset="0.45" stop-color="#1264ED"/>
<stop offset="0.6" stop-color="#0055E9"/>
<stop offset="0.69" stop-color="#0052E3"/>
<stop offset="0.79" stop-color="#004AD2"/>
<stop offset="0.91" stop-color="#003DB7"/>
<stop offset="1" stop-color="#0032A0"/>
</radialGradient>
<clipPath id="clip0_1838_20951">
<rect width="188" height="24" fill="white"/>
</clipPath>
</defs>
</svg>
