<svg width="211" height="24" viewBox="0 0 211 24" fill="none" xmlns="http://www.w3.org/2000/svg">
<g clip-path="url(#clip0_1096_25844)">
<path d="M128.999 15.32C128.999 20.16 125.409 23.97 119.669 23.97C113.929 23.97 109.629 19.54 109.629 14.1C109.629 8.65998 113.819 4.22998 119.609 4.22998C123.169 4.22998 126.269 6.10998 127.849 8.82998L125.669 10.11C124.579 8.06998 122.269 6.68998 119.579 6.68998C115.169 6.68998 112.129 9.94998 112.129 14.11C112.129 18.27 115.149 21.51 119.689 21.51C123.629 21.51 125.969 19.33 126.459 16.48H119.469V14.2H128.989V15.34L128.999 15.32Z" fill="#0032A0"/>
<path d="M142.699 21.23V23.62H131.959V4.57999H134.489V21.22H142.699V21.23Z" fill="#0032A0"/>
<path d="M142.988 14.1C142.988 8.60998 147.308 4.22998 152.838 4.22998C158.368 4.22998 162.708 8.60998 162.708 14.1C162.708 19.59 158.358 23.97 152.838 23.97C147.318 23.97 142.988 19.57 142.988 14.1ZM160.178 14.1C160.178 9.90998 156.998 6.67998 152.838 6.67998C148.678 6.67998 145.498 9.90998 145.498 14.1C145.498 18.29 148.678 21.5 152.838 21.5C156.998 21.5 160.178 18.26 160.178 14.1Z" fill="#0032A0"/>
<path d="M179.439 18.23C179.439 21.28 176.989 23.61 173.919 23.61H165.709V4.57999H173.319C176.279 4.57999 178.649 6.83999 178.649 9.76999C178.649 11.48 177.829 12.87 176.579 13.74C178.289 14.55 179.439 16.16 179.439 18.23ZM168.239 6.94999V12.77H173.329C174.909 12.77 176.159 11.49 176.159 9.85999C176.159 8.22999 174.909 6.94999 173.329 6.94999H168.239ZM176.939 18.15C176.939 16.44 175.609 15.08 173.919 15.08H168.239V21.25H173.919C175.609 21.25 176.939 19.89 176.939 18.15Z" fill="#0032A0"/>
<path d="M193.019 19.35H184.449L182.899 23.62H180.209L187.309 4.57999H190.169L197.269 23.62H194.579L193.029 19.35H193.019ZM192.149 16.98L188.719 7.59999L185.319 16.98H192.149Z" fill="#0032A0"/>
<path d="M210.049 21.23V23.62H199.309V4.57999H201.839V21.22H210.049V21.23Z" fill="#0032A0"/>
<path d="M51.3888 8.09999H46.4888V23.62H42.7188V8.09999H36.7988V4.48999H53.4188L51.3788 8.09999H51.3888Z" fill="#1E1E1E"/>
<path d="M67.4784 10.47C66.5484 8.78999 64.6984 7.76999 62.5184 7.76999C58.7784 7.76999 56.3184 10.37 56.3184 14.06C56.3184 17.75 58.7784 20.32 62.5184 20.32C64.6884 20.32 66.5684 19.29 67.4784 17.64L70.7484 19.49C69.1384 22.22 66.0384 24.01 62.5184 24.01C56.7284 24.01 52.5684 19.64 52.5684 14.06C52.5684 8.47999 56.7184 4.10999 62.5184 4.10999C66.0184 4.10999 69.1084 5.89999 70.7484 8.62999L67.4784 10.48" fill="#1E1E1E"/>
<path d="M76.9887 20.01H86.1087V23.62H73.2188V4.48999H86.7988L84.7588 8.09999H76.9788V12.17H84.9587V15.72H76.9788V20.01" fill="#1E1E1E"/>
<path d="M103.939 4.48999V23.62H101.069L92.7192 11.92V23.62H88.9492V4.48999H91.8192L100.169 16.16V4.48999H103.939Z" fill="#1E1E1E"/>
<path d="M34.2388 4.48999V23.62H30.4688V4.48999H34.2388Z" fill="#1E1E1E"/>
<path d="M11.8008 23.62H23.6208V11.8C17.2608 12.18 12.1808 17.26 11.8008 23.62Z" fill="url(#paint0_radial_1096_25844)"/>
<path d="M0 23.62H11.41L6.79 7.04001C2.59 11.31 0 17.16 0 23.62Z" fill="url(#paint1_radial_1096_25844)"/>
<path d="M7.03906 6.79L23.6191 11.41V0C17.1591 0 11.3091 2.59 7.03906 6.79Z" fill="url(#paint2_radial_1096_25844)"/>
<path d="M6.78906 7.04001L11.4091 23.62H11.7991C12.1691 17.26 17.2591 12.18 23.6191 11.8V11.41L7.03906 6.79001C6.95906 6.87001 6.86906 6.95001 6.78906 7.04001Z" fill="white"/>
</g>
<defs>
<radialGradient id="paint0_radial_1096_25844" cx="0" cy="0" r="1" gradientUnits="userSpaceOnUse" gradientTransform="translate(23.7754 23.6628) scale(23.698)">
<stop stop-color="#569DFF"/>
<stop offset="0.13" stop-color="#418BF9"/>
<stop offset="0.44" stop-color="#1264ED"/>
<stop offset="0.6" stop-color="#0055E9"/>
<stop offset="0.68" stop-color="#0052E3"/>
<stop offset="0.79" stop-color="#004AD2"/>
<stop offset="0.91" stop-color="#003DB7"/>
<stop offset="1" stop-color="#0032A0"/>
</radialGradient>
<radialGradient id="paint1_radial_1096_25844" cx="0" cy="0" r="1" gradientUnits="userSpaceOnUse" gradientTransform="translate(23.7746 23.6628) scale(23.7062 23.7062)">
<stop stop-color="#569DFF"/>
<stop offset="0.13" stop-color="#418BF9"/>
<stop offset="0.45" stop-color="#1264ED"/>
<stop offset="0.6" stop-color="#0055E9"/>
<stop offset="0.69" stop-color="#0052E3"/>
<stop offset="0.79" stop-color="#004AD2"/>
<stop offset="0.91" stop-color="#003DB7"/>
<stop offset="1" stop-color="#0032A0"/>
</radialGradient>
<radialGradient id="paint2_radial_1096_25844" cx="0" cy="0" r="1" gradientUnits="userSpaceOnUse" gradientTransform="translate(23.7737 23.6628) scale(23.7062 23.7062)">
<stop stop-color="#569DFF"/>
<stop offset="0.13" stop-color="#418BF9"/>
<stop offset="0.45" stop-color="#1264ED"/>
<stop offset="0.6" stop-color="#0055E9"/>
<stop offset="0.69" stop-color="#0052E3"/>
<stop offset="0.79" stop-color="#004AD2"/>
<stop offset="0.91" stop-color="#003DB7"/>
<stop offset="1" stop-color="#0032A0"/>
</radialGradient>
<clipPath id="clip0_1096_25844">
<rect width="210.05" height="24" fill="white"/>
</clipPath>
</defs>
</svg>
