<svg width="158" height="24" viewBox="0 0 158 24" fill="none" xmlns="http://www.w3.org/2000/svg">
<path d="M123.517 10.6552C123.517 14.069 120.931 16.7586 117.414 16.7586H113.069V23.5862H110.586V4.5517H117.517C121.034 4.5517 123.62 7.13793 123.62 10.6552H123.517ZM121.034 10.6552C121.034 8.48276 119.483 6.931 117.414 6.931H113.069V14.3793H117.414C119.483 14.3793 121.034 12.8276 121.034 10.6552Z" fill="#0032A0"/>
<path d="M140.379 4.5517V23.5862H138.31L128.586 9.41379V23.5862H126.104V4.5517H128.172L137.897 18.7242V4.5517H140.379Z" fill="#0032A0"/>
<path d="M143.172 19.2414L145.344 18C146.068 20.069 147.62 21.4138 150.413 21.4138C153.206 21.4138 154.448 20.1724 154.448 18.5172C154.448 16.8621 152.793 15.9311 149.999 15C146.999 14.069 143.999 13.0345 143.999 9.51721C143.999 5.99996 146.793 4.13794 149.999 4.13794C153.206 4.13794 155.379 5.89656 156.413 8.27588L154.344 9.51721C153.62 7.86203 152.379 6.62067 149.999 6.62067C147.62 6.62067 146.586 7.65516 146.586 9.41379C146.586 11.1724 147.931 11.7931 150.62 12.6207C153.931 13.6552 157.034 14.6896 157.034 18.3103C157.034 21.931 154.344 23.7932 150.517 23.7932C146.689 23.7932 144.31 21.9311 143.275 19.138L143.172 19.2414Z" fill="#0032A0"/>
<path d="M51.3109 8.06897H46.4488V23.5862H42.7247V8.06897H36.8281V4.44827H53.3799L51.3109 8.06897Z" fill="#1E1E1E"/>
<path d="M67.4494 10.4483C66.5183 8.7931 64.6563 7.75864 62.4839 7.75864C58.7597 7.75864 56.2769 10.3448 56.2769 14.069C56.2769 17.7931 58.7597 20.2759 62.4839 20.2759C66.208 20.2759 66.5183 19.2414 67.4494 17.5862L70.7597 19.4483C69.1046 22.138 66.1046 24 62.5873 24C56.7942 24 52.6562 19.6552 52.6562 14.069C52.6562 8.48275 56.7942 4.13794 62.5873 4.13794C68.3804 4.13794 69.208 5.89653 70.7597 8.68964L67.4494 10.5517" fill="#1E1E1E"/>
<path d="M76.8628 19.9655H85.9663V23.5862H73.1387V4.5517H86.6904L84.6215 8.17239H76.8628V12.2069H84.8284V15.7241H76.8628V19.9655Z" fill="#1E1E1E"/>
<path d="M103.758 4.44827V23.4828H100.861L92.482 11.7931V23.4828H88.7578V4.44827H91.6544L100.034 16.1379V4.44827H103.758Z" fill="#1E1E1E"/>
<path d="M34.2417 4.44827V23.4828H30.5176V4.44827H34.2417Z" fill="#1E1E1E"/>
<path d="M11.8965 23.5862H23.6896V11.7931C17.3792 12.2069 12.3103 17.2759 11.8965 23.5862Z" fill="url(#paint0_radial_1096_25655)"/>
<path d="M0.103439 23.5862H11.4828L6.82759 7.03448C2.5862 11.2759 0 17.1724 0 23.5862H0.103439Z" fill="url(#paint1_radial_1096_25655)"/>
<path d="M7.13867 6.72415L23.6904 11.3793V0C17.2766 0 11.3801 2.58619 7.13867 6.82758V6.72415Z" fill="url(#paint2_radial_1096_25655)"/>
<path d="M6.82812 7.03448L11.4833 23.5862H11.8971C12.3109 17.2759 17.3799 12.2069 23.6902 11.7931V11.3793L7.13847 6.72415L6.93158 6.931L6.82812 7.03448Z" fill="white"/>
<defs>
<radialGradient id="paint0_radial_1096_25655" cx="0" cy="0" r="1" gradientUnits="userSpaceOnUse" gradientTransform="translate(10.1999 8.71032) scale(0.413794 0.413795)">
<stop stop-color="#569DFF"/>
<stop offset="0.1" stop-color="#418BF9"/>
<stop offset="0.4" stop-color="#1264ED"/>
<stop offset="0.6" stop-color="#0055E9"/>
<stop offset="0.7" stop-color="#0052E3"/>
<stop offset="0.8" stop-color="#004AD2"/>
<stop offset="0.9" stop-color="#003DB7"/>
<stop offset="1" stop-color="#0032A0"/>
</radialGradient>
<radialGradient id="paint1_radial_1096_25655" cx="0" cy="0" r="1" gradientUnits="userSpaceOnUse" gradientTransform="translate(10.2 8.71035) scale(23.0897 23.0897)">
<stop stop-color="#569DFF"/>
<stop offset="0.1" stop-color="#418BF9"/>
<stop offset="0.4" stop-color="#1264ED"/>
<stop offset="0.6" stop-color="#0055E9"/>
<stop offset="0.7" stop-color="#0052E3"/>
<stop offset="0.8" stop-color="#004AD2"/>
<stop offset="0.9" stop-color="#003DB7"/>
<stop offset="1" stop-color="#0032A0"/>
</radialGradient>
<radialGradient id="paint2_radial_1096_25655" cx="0" cy="0" r="1" gradientUnits="userSpaceOnUse" gradientTransform="translate(10.2007 8.71036) scale(23.0897)">
<stop stop-color="#569DFF"/>
<stop offset="0.1" stop-color="#418BF9"/>
<stop offset="0.4" stop-color="#1264ED"/>
<stop offset="0.6" stop-color="#0055E9"/>
<stop offset="0.7" stop-color="#0052E3"/>
<stop offset="0.8" stop-color="#004AD2"/>
<stop offset="0.9" stop-color="#003DB7"/>
<stop offset="1" stop-color="#0032A0"/>
</radialGradient>
</defs>
</svg>
