<svg width="158" height="24" viewBox="0 0 158 24" fill="none" xmlns="http://www.w3.org/2000/svg">
<path d="M109.447 14.069C109.447 8.58622 113.585 4.24139 119.378 4.24139C125.171 4.24139 125.999 6.10346 127.551 8.89657L125.378 10.138C124.344 8.069 121.965 6.72415 119.378 6.72415C114.93 6.72415 111.93 9.93106 111.93 14.1724C111.93 18.4138 114.93 21.5173 119.378 21.5173C123.827 21.5173 124.24 20.1724 125.378 18.1035L127.551 19.3449C125.999 22.138 122.896 24 119.378 24C113.585 24 109.447 19.6552 109.447 14.1724V14.069Z" fill="#0032A0"/>
<path d="M142.448 6.93106H136.862V23.5863H134.379V6.93106H128.793V4.55173H142.448V6.93106Z" fill="#0032A0"/>
<path d="M143.379 19.2414L145.551 18C146.275 20.069 147.827 21.4138 150.62 21.4138C153.413 21.4138 154.655 20.1724 154.655 18.5173C154.655 16.8621 153 15.9311 150.207 15C147.207 14.069 144.206 13.0345 144.206 9.51727C144.206 6.00002 147 4.13794 150.207 4.13794C153.413 4.13794 155.586 5.89656 156.62 8.27587L154.551 9.51727C153.827 7.86209 152.586 6.62069 150.207 6.62069C147.827 6.62069 146.793 7.65519 146.793 9.41381C146.793 11.1724 148.138 11.7931 150.827 12.6207C154.138 13.6552 157.241 14.6897 157.241 18.3104C157.241 21.9311 154.551 23.7932 150.724 23.7932C146.896 23.7932 144.517 21.9311 143.482 19.138L143.379 19.2414Z" fill="#0032A0"/>
<path d="M51.4144 8.069H46.5523V23.5863H42.8282V8.069H36.9316V4.4483H53.4834L51.4144 8.069Z" fill="#1E1E1E"/>
<path d="M67.4494 10.4483C66.5183 8.79312 64.6563 7.75863 62.4838 7.75863C58.7597 7.75863 56.2769 10.3448 56.2769 14.069C56.2769 17.7931 58.7597 20.2759 62.4838 20.2759C66.208 20.2759 66.5183 19.2414 67.4494 17.5862L70.7597 19.4483C69.1045 22.138 66.1045 24 62.5873 24C56.7942 24 52.6562 19.6552 52.6562 14.069C52.6562 8.48278 56.7942 4.13794 62.5873 4.13794C68.3804 4.13794 69.208 5.89656 70.7597 8.68966L67.4494 10.5518" fill="#1E1E1E"/>
<path d="M76.8628 19.9656H85.9663V23.5863H73.1387V4.55173H86.6904L84.6214 8.17242H76.8628V12.2069H84.8283V15.7242H76.8628V19.9656Z" fill="#1E1E1E"/>
<path d="M103.758 4.4483V23.4828H100.861L92.482 11.7931V23.4828H88.7578V4.4483H91.6544L100.034 16.138V4.4483H103.758Z" fill="#1E1E1E"/>
<path d="M34.2417 4.4483V23.4828H30.5176V4.4483H34.2417Z" fill="#1E1E1E"/>
<path d="M11.8965 23.5862H23.6896V11.7931C17.3792 12.2069 12.3103 17.2759 11.8965 23.5862Z" fill="url(#paint0_radial_1096_25562)"/>
<path d="M0.103455 23.5863H11.4828L6.8276 7.03452C2.58622 11.2759 0 17.1725 0 23.5863H0.103455Z" fill="url(#paint1_radial_1096_25562)"/>
<path d="M7.13867 6.72414L23.6904 11.3793V0C17.2766 0 11.3801 2.58622 7.13867 6.8276V6.72414Z" fill="url(#paint2_radial_1096_25562)"/>
<path d="M6.82812 7.03452L11.4833 23.5863H11.8971C12.3109 17.2759 17.3798 12.2069 23.6902 11.7931V11.3793L7.13846 6.72415L6.93156 6.93106L6.82812 7.03452Z" fill="white"/>
<defs>
<radialGradient id="paint0_radial_1096_25562" cx="0" cy="0" r="1" gradientUnits="userSpaceOnUse" gradientTransform="translate(10.1379 11.6896) scale(23.0897 23.0897)">
<stop stop-color="#569DFF"/>
<stop offset="0.1" stop-color="#418BF9"/>
<stop offset="0.4" stop-color="#1264ED"/>
<stop offset="0.6" stop-color="#0055E9"/>
<stop offset="0.7" stop-color="#0052E3"/>
<stop offset="0.8" stop-color="#004AD2"/>
<stop offset="0.9" stop-color="#003DB7"/>
<stop offset="1" stop-color="#0032A0"/>
</radialGradient>
<radialGradient id="paint1_radial_1096_25562" cx="0" cy="0" r="1" gradientUnits="userSpaceOnUse" gradientTransform="translate(10.1379 11.6897) scale(23.0897 23.0897)">
<stop stop-color="#569DFF"/>
<stop offset="0.1" stop-color="#418BF9"/>
<stop offset="0.4" stop-color="#1264ED"/>
<stop offset="0.6" stop-color="#0055E9"/>
<stop offset="0.7" stop-color="#0052E3"/>
<stop offset="0.8" stop-color="#004AD2"/>
<stop offset="0.9" stop-color="#003DB7"/>
<stop offset="1" stop-color="#0032A0"/>
</radialGradient>
<radialGradient id="paint2_radial_1096_25562" cx="0" cy="0" r="1" gradientUnits="userSpaceOnUse" gradientTransform="translate(10.1387 11.6897) scale(23.0897)">
<stop stop-color="#569DFF"/>
<stop offset="0.1" stop-color="#418BF9"/>
<stop offset="0.4" stop-color="#1264ED"/>
<stop offset="0.6" stop-color="#0055E9"/>
<stop offset="0.7" stop-color="#0052E3"/>
<stop offset="0.8" stop-color="#004AD2"/>
<stop offset="0.9" stop-color="#003DB7"/>
<stop offset="1" stop-color="#0032A0"/>
</radialGradient>
</defs>
</svg>
