<svg width="180" height="24" viewBox="0 0 180 24" fill="none" xmlns="http://www.w3.org/2000/svg">
<path d="M109.551 14.069C109.551 8.58622 113.689 4.24139 119.482 4.24139C125.275 4.24139 126.102 6.10346 127.654 8.89656L125.482 10.1379C124.447 8.06898 122.068 6.72415 119.482 6.72415C115.034 6.72415 112.034 9.93105 112.034 14.1724C112.034 18.4138 115.034 21.5172 119.482 21.5172C123.93 21.5172 124.344 20.1724 125.482 18.1034L127.654 19.3448C126.102 22.1379 122.999 24 119.482 24C113.689 24 109.551 19.6552 109.551 14.1724V14.069Z" fill="#0032A0"/>
<path d="M129 14.069C129 8.58622 133.345 4.24139 138.828 4.24139C144.31 4.24139 148.655 8.58622 148.655 14.069C148.655 19.5517 144.31 23.8966 138.828 23.8966C133.345 23.8966 129 19.5517 129 14.069ZM146.172 14.069C146.172 9.93105 142.966 6.62071 138.828 6.62071C134.69 6.62071 131.483 9.8276 131.483 14.069C131.483 18.3104 134.69 21.4138 138.828 21.4138C142.966 21.4138 146.172 18.2069 146.172 14.069Z" fill="#0032A0"/>
<path d="M158.689 16.2414H154.241V23.4828H151.758V4.44827H159.31C162.516 4.44827 165.206 7.03448 165.206 10.3448C165.206 13.6552 163.551 15 161.275 15.8276L165.723 23.3793H162.93L158.689 16.1379V16.2414ZM154.137 13.9655H159.206C161.068 13.9655 162.62 12.4138 162.62 10.4483C162.62 8.48276 161.068 6.93104 159.206 6.93104H154.137V13.9655Z" fill="#0032A0"/>
<path d="M179.688 21.2069V23.5862H168.309V4.55176H179.481V6.93107H170.791V12.7242H178.757V15.1035H170.791V21.1035H179.584L179.688 21.2069Z" fill="#0032A0"/>
<path d="M51.4144 8.06896H46.5523V23.5862H42.8282V8.06896H36.9316V4.44827H53.4833L51.4144 8.06896Z" fill="#1E1E1E"/>
<path d="M67.4493 10.4483C66.5183 8.79312 64.6562 7.75863 62.4838 7.75863C58.7597 7.75863 56.2769 10.3448 56.2769 14.069C56.2769 17.7931 58.7597 20.2759 62.4838 20.2759C66.208 20.2759 66.5183 19.2414 67.4493 17.5862L70.7597 19.4483C69.1045 22.1379 66.1045 24 62.5873 24C56.7942 24 52.6562 19.6552 52.6562 14.069C52.6562 8.48277 56.7942 4.13794 62.5873 4.13794C68.3804 4.13794 69.208 5.89657 70.7597 8.68967L67.4493 10.5517" fill="#1E1E1E"/>
<path d="M76.9663 19.9655H86.0698V23.5862H73.2422V4.55176H86.7939L84.7249 8.17245H76.9663V12.2069H84.9319V15.7242H76.9663V19.9655Z" fill="#1E1E1E"/>
<path d="M103.863 4.44827V23.4828H100.967L92.5874 11.7931V23.4828H88.8633V4.44827H91.7598L100.139 16.1379V4.44827H103.863Z" fill="#1E1E1E"/>
<path d="M34.3452 4.44827V23.4828H30.6211V4.44827H34.3452Z" fill="#1E1E1E"/>
<path d="M11.8965 23.5862H23.6896V11.7931C17.3792 12.2069 12.3103 17.2759 11.8965 23.5862Z" fill="url(#paint0_radial_1096_25350)"/>
<path d="M0.103439 23.5862H11.4827L6.82757 7.03445C2.5862 11.2758 0 17.1724 0 23.5862H0.103439Z" fill="url(#paint1_radial_1096_25350)"/>
<path d="M7.13867 6.72413L23.6904 11.3793V0C17.2766 0 11.38 2.58621 7.13867 6.82759V6.72413Z" fill="url(#paint2_radial_1096_25350)"/>
<path d="M6.93164 7.03447L11.5868 23.5862H12.0006C12.4144 17.2758 17.4834 12.2069 23.7937 11.7931V11.3793L7.24199 6.72412L7.03508 6.93103L6.93164 7.03447Z" fill="white"/>
<defs>
<radialGradient id="paint0_radial_1096_25350" cx="0" cy="0" r="1" gradientUnits="userSpaceOnUse" gradientTransform="translate(10.4896 19.8828) scale(23.0896)">
<stop stop-color="#569DFF"/>
<stop offset="0.1" stop-color="#418BF9"/>
<stop offset="0.4" stop-color="#1264ED"/>
<stop offset="0.6" stop-color="#0055E9"/>
<stop offset="0.7" stop-color="#0052E3"/>
<stop offset="0.8" stop-color="#004AD2"/>
<stop offset="0.9" stop-color="#003DB7"/>
<stop offset="1" stop-color="#0032A0"/>
</radialGradient>
<radialGradient id="paint1_radial_1096_25350" cx="0" cy="0" r="1" gradientUnits="userSpaceOnUse" gradientTransform="translate(10.4896 19.8827) scale(23.0896 23.0896)">
<stop stop-color="#569DFF"/>
<stop offset="0.1" stop-color="#418BF9"/>
<stop offset="0.4" stop-color="#1264ED"/>
<stop offset="0.6" stop-color="#0055E9"/>
<stop offset="0.7" stop-color="#0052E3"/>
<stop offset="0.8" stop-color="#004AD2"/>
<stop offset="0.9" stop-color="#003DB7"/>
<stop offset="1" stop-color="#0032A0"/>
</radialGradient>
<radialGradient id="paint2_radial_1096_25350" cx="0" cy="0" r="1" gradientUnits="userSpaceOnUse" gradientTransform="translate(10.4904 19.8827) scale(23.0896 23.0896)">
<stop stop-color="#569DFF"/>
<stop offset="0.1" stop-color="#418BF9"/>
<stop offset="0.4" stop-color="#1264ED"/>
<stop offset="0.6" stop-color="#0055E9"/>
<stop offset="0.7" stop-color="#0052E3"/>
<stop offset="0.8" stop-color="#004AD2"/>
<stop offset="0.9" stop-color="#003DB7"/>
<stop offset="1" stop-color="#0032A0"/>
</radialGradient>
</defs>
</svg>
