<svg width="183" height="24" viewBox="0 0 183 24" fill="none" xmlns="http://www.w3.org/2000/svg">
<path d="M109.594 14.0941C109.594 8.60639 113.722 4.22821 119.54 4.22821C123.048 4.22821 126.147 6.04746 127.746 8.84629L125.547 10.1258C124.458 8.03663 122.149 6.6772 119.54 6.6772C115.081 6.6772 112.093 9.91585 112.093 14.0941C112.093 18.2724 115.081 21.491 119.54 21.491C122.149 21.491 124.458 20.1316 125.547 18.0625L127.746 19.3119C126.167 22.1108 123.068 23.96 119.54 23.96C113.722 23.96 109.594 19.5518 109.594 14.0941Z" fill="#0032A0"/>
<path d="M141.232 21.2112V23.6002H130.496V4.56812H133.025V21.2012H141.232V21.2112Z" fill="#0032A0"/>
<path d="M141.531 14.0941C141.531 8.60639 145.849 4.22821 151.377 4.22821C156.905 4.22821 161.243 8.60639 161.243 14.0941C161.243 19.5818 156.895 23.96 151.377 23.96C145.859 23.96 141.531 19.5518 141.531 14.0941ZM158.714 14.0941C158.714 9.90585 155.535 6.6772 151.377 6.6772C147.219 6.6772 144.04 9.91585 144.04 14.0941C144.04 18.2724 147.219 21.491 151.377 21.491C155.535 21.491 158.714 18.2524 158.714 14.0941Z" fill="#0032A0"/>
<path d="M166.81 4.57806V23.6101H164.281V4.57806H166.81Z" fill="#0032A0"/>
<path d="M182.664 6.96707H177.036V23.6001H174.537V6.96707H168.939V4.57806H182.664V6.96707Z" fill="#0032A0"/>
<path d="M51.3691 8.08659H46.4711V23.6001H42.7027V8.08659H36.7852V4.47809H53.3982L51.3591 8.08659H51.3691Z" fill="#1E1E1E"/>
<path d="M67.4507 10.4656C66.5211 8.78633 64.6718 7.76675 62.4927 7.76675C58.7543 7.76675 56.2953 10.3657 56.2953 14.0541C56.2953 17.7426 58.7543 20.3115 62.4927 20.3115C64.6618 20.3115 66.5411 19.282 67.4507 17.6326L70.7193 19.4819C69.11 22.2107 66.0113 24 62.4927 24C56.7051 24 52.5469 19.6318 52.5469 14.0541C52.5469 8.47646 56.6951 4.10828 62.4927 4.10828C65.9913 4.10828 69.08 5.89753 70.7193 8.62639L67.4507 10.4756" fill="#1E1E1E"/>
<path d="M76.9579 20.0016H86.0741V23.6101H73.1895V4.4881H86.7638L84.7247 8.0966H76.9479V12.1649H84.9246V15.7134H76.9479V20.0016" fill="#1E1E1E"/>
<path d="M103.898 4.4881V23.6101H101.029L92.6825 11.915V23.6101H88.9141V4.4881H91.7829L100.129 16.1532V4.4881H103.898Z" fill="#1E1E1E"/>
<path d="M34.2255 4.48828V23.6103H30.457V4.48828H34.2255Z" fill="#1E1E1E"/>
<path d="M11.7949 23.6002H23.61V11.7851C17.2527 12.1649 12.1748 17.2428 11.7949 23.6002Z" fill="url(#paint0_radial_1096_26034)"/>
<path d="M0 23.6101H11.4053L6.78718 7.03705C2.58892 11.2953 0 17.1528 0 23.6101Z" fill="url(#paint1_radial_1096_26034)"/>
<path d="M7.03711 6.78718L23.6102 11.4053V0C17.1529 0 11.3053 2.58892 7.03711 6.78718Z" fill="url(#paint2_radial_1096_26034)"/>
<path d="M6.78711 7.03707L11.4052 23.6102H11.795C12.1649 17.2528 17.2528 12.1749 23.6101 11.7951V11.4052L7.03701 6.78717C6.95704 6.86714 6.86708 6.9471 6.78711 7.03707Z" fill="white"/>
<defs>
<radialGradient id="paint0_radial_1096_26034" cx="0" cy="0" r="1" gradientUnits="userSpaceOnUse" gradientTransform="translate(23.7495 23.7209) scale(23.6881 23.6881)">
<stop stop-color="#569DFF"/>
<stop offset="0.13" stop-color="#418BF9"/>
<stop offset="0.44" stop-color="#1264ED"/>
<stop offset="0.6" stop-color="#0055E9"/>
<stop offset="0.68" stop-color="#0052E3"/>
<stop offset="0.79" stop-color="#004AD2"/>
<stop offset="0.91" stop-color="#003DB7"/>
<stop offset="1" stop-color="#0032A0"/>
</radialGradient>
<radialGradient id="paint1_radial_1096_26034" cx="0" cy="0" r="1" gradientUnits="userSpaceOnUse" gradientTransform="translate(23.7497 23.7209) scale(23.6963 23.6963)">
<stop stop-color="#569DFF"/>
<stop offset="0.13" stop-color="#418BF9"/>
<stop offset="0.45" stop-color="#1264ED"/>
<stop offset="0.6" stop-color="#0055E9"/>
<stop offset="0.69" stop-color="#0052E3"/>
<stop offset="0.79" stop-color="#004AD2"/>
<stop offset="0.91" stop-color="#003DB7"/>
<stop offset="1" stop-color="#0032A0"/>
</radialGradient>
<radialGradient id="paint2_radial_1096_26034" cx="0" cy="0" r="1" gradientUnits="userSpaceOnUse" gradientTransform="translate(23.7498 23.7209) scale(23.6963 23.6963)">
<stop stop-color="#569DFF"/>
<stop offset="0.13" stop-color="#418BF9"/>
<stop offset="0.45" stop-color="#1264ED"/>
<stop offset="0.6" stop-color="#0055E9"/>
<stop offset="0.69" stop-color="#0052E3"/>
<stop offset="0.79" stop-color="#004AD2"/>
<stop offset="0.91" stop-color="#003DB7"/>
<stop offset="1" stop-color="#0032A0"/>
</radialGradient>
</defs>
</svg>
