<?xml version="1.0" encoding="UTF-8"?>
<svg id="Layer_2" data-name="Layer 2" xmlns="http://www.w3.org/2000/svg" viewBox="0 0 589.43 249.37">
  <g id="Layer_1-2" data-name="Layer 1">
    <g>
      <g>
        <polygon points="107.63 89.81 138.8 50.41 126.12 41.18 88.6 90.7 131.22 143.24 143.73 133.47 107.63 89.81"/>
        <polygon points="66.59 140.74 82.79 140.74 82.79 0 66.59 3.55 66.59 140.74"/>
        <path d="M196.28,84.48c-12.44,0-21.92,2.58-28.43,7.72-6.52,5.14-9.78,12.63-9.78,22.45,0,8.64,2.44,15.41,7.31,20.32,4.88,4.91,11.59,7.37,20.16,7.37,4.94,0,10.13-1.06,15.59-3.19,5.46-2.13,10.59-5.15,15.41-9.06l1.94,10.65h11.97v-62.12c0-24.49-11.38-36.74-34.16-36.74-5.27,0-10.71.75-16.28,2.22-5.59,1.48-10.78,3.58-15.59,6.3l4.76,11.54c3.88-1.77,8.13-3.26,12.77-4.43,4.63-1.19,9.07-1.78,13.29-1.78,13.15,0,19.73,7.51,19.73,22.54v6.21h-18.68ZM214.96,118.21c-1.64,1.54-3.51,2.99-5.62,4.35-2.1,1.35-4.36,2.51-6.75,3.46-2.4.95-4.79,1.71-7.19,2.3-2.4.59-4.7.89-6.92.89-9.94,0-14.9-5.09-14.9-15.26,0-6.39,1.96-11.07,5.87-14.02,3.92-2.96,10.14-4.43,18.68-4.43h16.84v22.72Z"/>
        <polygon points="331.48 50.41 318.8 41.18 281.3 90.7 323.91 143.24 336.41 133.47 300.32 89.81 331.48 50.41"/>
        <polygon points="275.48 0 259.28 3.55 259.28 140.75 275.48 140.75 275.48 0"/>
        <path d="M411.15,140.75h11.98v-62.12c0-24.49-11.39-36.74-34.16-36.74-5.28,0-10.72.75-16.29,2.22-5.57,1.48-10.77,3.58-15.58,6.3l4.76,11.54c3.86-1.77,8.12-3.26,12.76-4.43,4.64-1.19,9.07-1.78,13.3-1.78,13.15,0,19.72,7.51,19.72,22.54v6.21h-18.67c-12.45,0-21.92,2.58-28.44,7.72-6.51,5.14-9.77,12.63-9.77,22.45,0,8.64,2.43,15.41,7.3,20.32,4.87,4.91,11.59,7.37,20.17,7.37,4.93,0,10.12-1.06,15.58-3.19,5.47-2.13,10.59-5.15,15.41-9.06l1.94,10.65ZM407.64,118.21c-1.64,1.54-3.51,2.99-5.61,4.35-2.1,1.35-4.36,2.51-6.75,3.46-2.4.95-4.8,1.71-7.19,2.3-2.4.59-4.71.89-6.93.89-9.94,0-14.91-5.09-14.91-15.26,0-6.39,1.95-11.07,5.87-14.02,3.91-2.96,10.13-4.43,18.68-4.43h16.83v22.72Z"/>
        <path d="M488.32,142.88c13.49,0,24.04-4.32,31.61-12.95,7.58-8.64,11.36-21.01,11.36-37.1s-3.82-28.87-11.46-37.63c-7.62-8.75-18.13-13.13-31.51-13.13s-23.75,4.38-31.44,13.13c-7.69,8.76-11.53,21.3-11.53,37.63s3.82,28.46,11.46,37.1c7.62,8.64,18.13,12.95,31.52,12.95ZM468.86,64.78c4.52-6.39,11-9.58,19.46-9.58s15.11,3.19,19.64,9.58c4.52,6.39,6.78,15.74,6.78,28.05s-2.26,21.39-6.78,27.6c-4.53,6.21-11.07,9.32-19.64,9.32s-14.94-3.11-19.46-9.32c-4.53-6.21-6.79-15.41-6.79-27.6s2.26-21.66,6.79-28.05Z"/>
      </g>
      <g>
        <polygon points="8.4 227.82 29.16 227.82 29.16 220.1 8.4 220.1 8.4 208.42 34.61 208.42 34.61 200.7 0 200.7 0 249.27 35.29 249.27 35.29 241.55 8.4 241.55 8.4 227.82"/>
        <polygon points="77.6 234.2 51.72 200.7 44.58 200.7 44.58 249.27 52.98 249.27 52.98 215.77 78.85 249.27 86 249.27 86 200.7 77.6 200.7 77.6 234.2"/>
        <polygon points="94.6 208.42 108.9 208.42 108.9 249.27 117.3 249.27 117.3 208.42 131.59 208.42 131.59 200.7 94.6 200.7 94.6 208.42"/>
        <polygon points="149.35 227.82 170.12 227.82 170.12 220.1 149.35 220.1 149.35 208.42 175.56 208.42 175.56 200.7 140.95 200.7 140.95 249.27 176.25 249.27 176.25 241.55 149.35 241.55 149.35 227.82"/>
        <path d="M221.84,215.79c0-8.6-6.78-15.09-15.77-15.09h-20.54v48.57h8.4v-18.38h10.17l10.08,18.15.13.23h9.22l-11.03-19.3c2-.9,9.33-4.85,9.33-14.18ZM206.07,223.17h-12.14v-14.75h12.14c4.2,0,7.37,3.17,7.37,7.37s-3.17,7.37-7.37,7.37Z"/>
        <polygon points="265.57 200.8 228.58 200.8 228.58 208.52 242.88 208.52 242.88 249.37 251.28 249.37 251.28 208.52 265.57 208.52 265.57 200.8"/>
        <path d="M292.59,200.7h-8.1l-20.12,48.57h8.82l5.11-12.6h20.49l5.11,12.6h8.82l-20-48.29-.12-.28ZM281.39,228.95l7.16-18.05,7.16,18.05h-14.31Z"/>
        <rect x="320.28" y="200.7" width="8.4" height="48.57"/>
        <polygon points="374.45 234.2 348.57 200.7 341.43 200.7 341.43 249.27 349.83 249.27 349.83 215.77 375.7 249.27 382.85 249.27 382.85 200.7 374.45 200.7 374.45 234.2"/>
        <polygon points="419.82 223.57 401.67 200.7 394.52 200.7 394.52 249.27 402.92 249.27 402.92 215.39 419.82 236.61 436.73 215.39 436.73 249.27 445.13 249.27 445.13 200.7 437.99 200.7 419.82 223.57"/>
        <polygon points="465.3 227.82 486.07 227.82 486.07 220.1 465.3 220.1 465.3 208.42 491.52 208.42 491.52 200.7 456.9 200.7 456.9 249.27 492.19 249.27 492.19 241.55 465.3 241.55 465.3 227.82"/>
        <polygon points="535.86 234.2 509.99 200.7 502.84 200.7 502.84 249.27 511.24 249.27 511.24 215.77 537.11 249.27 544.26 249.27 544.26 200.7 535.86 200.7 535.86 234.2"/>
        <polygon points="552.44 200.7 552.44 208.42 566.74 208.42 566.74 249.27 575.14 249.27 575.14 208.42 589.43 208.42 589.43 200.7 552.44 200.7"/>
      </g>
    </g>
  </g>
</svg>